<?xml version="1.0" encoding="UTF-8" standalone="no"?>
<!-- Created with Inkscape (http://www.inkscape.org/) -->

<svg
   width="210mm"
   height="297mm"
   viewBox="0 0 210 297"
   version="1.1"
   id="svg5"
   inkscape:version="1.2.1 (9c6d41e, 2022-07-14)"
   sodipodi:docname="franky.svg"
   xmlns:inkscape="http://www.inkscape.org/namespaces/inkscape"
   xmlns:sodipodi="http://sodipodi.sourceforge.net/DTD/sodipodi-0.dtd"
   xmlns="http://www.w3.org/2000/svg"
   xmlns:svg="http://www.w3.org/2000/svg">
  <sodipodi:namedview
     id="namedview7"
     pagecolor="#ffffff"
     bordercolor="#000000"
     borderopacity="0.25"
     inkscape:showpageshadow="2"
     inkscape:pageopacity="0.0"
     inkscape:pagecheckerboard="0"
     inkscape:deskcolor="#d1d1d1"
     inkscape:document-units="mm"
     showgrid="false"
     showguides="true"
     inkscape:zoom="4.8537138"
     inkscape:cx="241.97966"
     inkscape:cy="460.1631"
     inkscape:window-width="2560"
     inkscape:window-height="1387"
     inkscape:window-x="0"
     inkscape:window-y="25"
     inkscape:window-maximized="1"
     inkscape:current-layer="layer1">
    <sodipodi:guide
       position="82.001628,215.54578"
       orientation="1,0"
       id="guide999"
       inkscape:locked="false" />
    <sodipodi:guide
       position="70.844172,175.06131"
       orientation="0,-1"
       id="guide1099"
       inkscape:locked="false" />
    <sodipodi:guide
       position="68.431502,261.5903"
       orientation="1,0"
       id="guide2946"
       inkscape:locked="false" />
  </sodipodi:namedview>
  <defs
     id="defs2" />
  <g
     inkscape:label="Layer 1"
     inkscape:groupmode="layer"
     id="layer1">
    <path
       style="fill:#ffffff;stroke:#000000;stroke-width:0.1;stroke-linecap:round;stroke-dasharray:none"
       d="m 63.61303,126.04583 -3.2945,7.69667 9.607293,1.22527 3.710368,-8.21036 z"
       id="path1325" />
    <rect
       style="fill:#ffffff;fill-opacity:1;stroke:#000000;stroke-width:0.1;stroke-linecap:round;stroke-dasharray:none"
       id="rect4905"
       width="28.073433"
       height="24.802744"
       x="46.443817"
       y="92.342522"
       rx="0.72275144"
       ry="0.44862059"
       inkscape:export-filename="storage.png"
       inkscape:export-xdpi="1122.51"
       inkscape:export-ydpi="1122.51" />
    <path
       id="rect3758-90"
       style="fill:#ececec;fill-opacity:1;stroke:#000000;stroke-width:0.0749029;stroke-linecap:round;stroke-dasharray:none"
       d="m 17.537497,112.35807 c -0.446469,0.0113 -0.802688,0.37617 -0.802688,0.82772 v 0.3962 c 0,0.45872 0.367519,0.82811 0.823923,0.82811 0.456403,0 0.823922,-0.36939 0.823922,-0.82811 v -0.3962 c 0,-0.45872 -0.367519,-0.82772 -0.823922,-0.82772 -0.0071,0 -0.01415,-1.8e-4 -0.02123,0 z m -0.348257,2.23635 c -0.336044,-0.005 -0.663948,0.17705 -0.74902,0.51029 -0.0061,0.024 -0.01249,0.048 -0.01892,0.0718 -0.147822,-0.22051 -0.43242,-0.42601 -0.664466,-0.35351 l -1.158279,0.36205 c -0.449401,0.08 -1.404884,0.54445 -1.826606,0.71983 l -1.038976,0.4323 c -0.153558,0.0638 -0.138379,0.17126 -0.03668,0.27551 -0.161256,-0.0401 -0.337752,-1.3e-4 -0.461767,0.12728 -1.080623,1.11012 -1.2373028,-0.17638 -2.2331618,3.2969 -0.07687,0.2681 -0.207954,0.50993 -0.01622,0.71169 0.191734,0.20179 0.624806,0.28274 0.708481,0.0167 0.7660728,-2.43558 0.7993218,-3.3297 2.2331608,-3.29651 0.260796,0.006 0.215371,-0.45008 0.04981,-0.6725 0.199083,0.0893 0.441085,0.1375 0.616205,0.0807 0,0 2.273709,-1.00673 2.726589,-1.06365 l 0.957896,-0.18162 c -0.538564,1.50085 -1.536666,2.5914 -1.216579,4.79711 0.06587,0.45392 -0.697332,0.58241 -0.0089,0.8739 0.688455,0.2915 1.169507,0.0944 1.346692,-0.3283 l 1.82815,-4.36209 0.03089,0.0629 c 0.226258,0.39839 0.788015,2.83085 0.788015,2.83085 0.04732,0.13839 0.172146,0.27075 0.316597,0.37292 -0.174544,0.16155 -0.284512,0.40728 -0.10579,0.49903 1.277251,0.65571 0.360447,1.40307 0.201927,3.65973 -0.01955,0.27831 -0.01508,0.51241 0.24903,0.42647 0.264104,-0.0859 0.263251,-0.36148 0.322387,-0.63408 0.298178,-0.59939 0.04464,-0.93741 0.138993,-1.30657 0.442876,-1.7328 0.01763,-1.25202 0.04093,-2.45599 0.0029,-0.15188 -0.106059,-0.25975 -0.248644,-0.31277 l -0.249029,-0.97596 c -0.113249,-0.44437 -0.316237,-1.49161 -0.521998,-1.90107 l -0.406556,-1.14863 c -0.03726,-0.10528 -0.127618,-0.18451 -0.239764,-0.23826 -0.05151,-0.25993 -0.226444,-0.49002 -0.488793,-0.6011 l -0.535511,-0.22662 c -0.105152,-0.0445 -0.218095,-0.067 -0.33011,-0.0687 z m 6.938477,0.0819 c -0.446468,0.0113 -0.802301,0.37616 -0.802301,0.82772 v 0.3962 c 0,0.45872 0.367133,0.8281 0.823536,0.8281 0.456403,0 0.823922,-0.36938 0.823922,-0.8281 v -0.3962 c 0,-0.45872 -0.367519,-0.82772 -0.823922,-0.82772 -0.0071,0 -0.01415,-1.8e-4 -0.02123,0 z m 0.391112,2.23635 c -0.112014,0.002 -0.224958,0.0242 -0.330109,0.0687 l -0.535512,0.22663 c -0.262349,0.11107 -0.437278,0.34117 -0.488793,0.60109 -0.112146,0.0538 -0.202504,0.13298 -0.239764,0.23826 l -0.406556,1.14864 c -0.20576,0.40946 -0.408749,1.45669 -0.521997,1.90107 l -0.24903,0.97595 c -0.142584,0.053 -0.251558,0.1609 -0.248644,0.31278 0.0233,1.20397 -0.40195,0.72319 0.04093,2.45598 0.09435,0.36917 -0.159185,0.70719 0.138993,1.30657 0.05914,0.27261 0.05828,0.54814 0.322388,0.63409 0.264106,0.0859 0.268582,-0.14816 0.24903,-0.42648 -0.158521,-2.25665 -1.075324,-3.00402 0.201926,-3.65972 0.178723,-0.0918 0.06875,-0.33748 -0.10579,-0.49904 0.144452,-0.10216 0.269273,-0.23452 0.316597,-0.37291 0,0 0.561758,-2.43246 0.788016,-2.83085 l 0.03089,-0.0629 1.82815,4.36209 c 0.05972,0.14248 0.15408,0.25919 0.279145,0.34033 -0.235006,0.17979 -0.365121,0.48049 -0.313121,0.79473 l 0.945928,5.71757 c 0.05985,0.36167 0.342281,0.62821 0.682998,0.6822 -0.0032,0.16855 0.08937,0.43175 0.257138,0.69655 l 2.182198,3.44436 c 0.245147,0.38693 0.555654,0.62632 0.695739,0.53667 0.140083,-0.0897 0.05519,-0.47337 -0.189958,-0.8603 l -2.182197,-3.44436 c -0.106667,-0.16836 -0.225533,-0.30877 -0.337445,-0.40629 0.340374,-0.13044 -0.238325,-0.86274 -0.271423,-1.29959 l -0.386094,-5.09242 c 0.0089,0.0219 0.01877,0.0438 0.02973,0.0652 l 2.634313,5.15606 c 0.166674,0.3262 0.516219,0.4936 0.857126,0.44044 0.04793,0.16154 0.216114,0.38421 0.456362,0.58519 l 3.122719,2.61236 c 0.350793,0.29351 0.718453,0.42633 0.824695,0.29803 0.106242,-0.12829 -0.0909,-0.46789 -0.44169,-0.76136 l -3.122333,-2.61237 c -0.152709,-0.12776 -0.308578,-0.22471 -0.44478,-0.28328 0.285197,-0.2284 -0.488499,-0.7488 -0.652497,-1.15485 l -1.974865,-4.88946 c -0.144845,-0.35862 -0.330922,-0.65635 -0.629332,-0.61467 -0.05526,0.008 -0.114171,0.027 -0.177603,0.0598 l -0.09536,0.0497 c -0.04579,0.0236 -0.08848,0.0507 -0.127797,0.0811 0.09624,-0.18402 -0.333958,-0.34106 -0.283778,-0.68686 0.320086,-2.20572 -0.678015,-3.29626 -1.21658,-4.79711 l 0.957897,0.18161 c 0.452879,0.0569 2.726588,1.06366 2.726588,1.06366 0.175121,0.0568 0.417122,0.009 0.616205,-0.0807 -0.165565,0.22242 0.154254,0.59352 0.41505,0.58751 1.433839,-0.0332 1.101845,0.94592 1.867918,3.3815 0.08367,0.26604 0.516746,0.18509 0.70848,-0.0167 0.191738,-0.20177 0.06065,-0.44359 -0.01622,-0.71169 -0.995859,-3.47328 -1.152539,-2.18678 -2.233162,-3.2969 -0.124015,-0.12741 -0.300511,-0.16738 -0.461767,-0.12728 0.1017,-0.10425 0.116879,-0.21169 -0.03668,-0.27552 l -1.038976,-0.43229 c -0.421723,-0.17539 -1.377206,-0.63978 -1.826606,-0.71983 l -1.158279,-0.36205 c -0.232047,-0.0725 -0.516645,0.133 -0.664466,0.35351 -0.0064,-0.0238 -0.01279,-0.0478 -0.01892,-0.0718 -0.08507,-0.33324 -0.412975,-0.51555 -0.74902,-0.51029 z m -9.928766,4.95349 c -0.301167,0.008 -0.436112,0.33249 -0.520454,0.71014 l -1.149785,5.14869 c -0.09549,0.42758 -0.773817,1.06854 -0.455203,1.24681 -0.124791,0.0803 -0.26287,0.20193 -0.392656,0.35313 l -2.6536168,3.09162 c -0.298136,0.34732 -0.436935,0.7148 -0.311191,0.82383 0.125744,0.10904 0.466715,-0.0826 0.76485,-0.42996 l 2.6540028,-3.09201 c 0.204185,-0.23787 0.333524,-0.48506 0.354433,-0.65232 0.344969,-0.004 0.662563,-0.2266 0.77373,-0.57586 l 1.757109,-5.52044 c 0.0073,-0.0229 0.01328,-0.046 0.01853,-0.0691 l 0.45057,5.08699 c 0.03866,0.4364 -0.41265,1.25421 -0.0556,1.32675 -0.09448,0.11466 -0.18905,0.27269 -0.26679,0.45635 l -1.590317,3.75752 c -0.178665,0.42211 -0.199537,0.81476 -0.04672,0.8801 0.15282,0.0653 0.41978,-0.22206 0.598445,-0.64417 l 1.590316,-3.75751 c 0.122274,-0.28889 0.170805,-0.5638 0.140153,-0.72955 0.32728,-0.10947 0.56215,-0.41915 0.56215,-0.7858 v -5.79596 c 0,-0.45872 -0.367519,-0.8281 -0.823922,-0.8281 h -0.10772 c -0.357272,0 -0.464994,0.24988 -0.475667,0.57742 -0.08218,-0.23688 -0.270309,-0.43306 -0.527402,-0.51573 l -0.102315,-0.033 c -0.06792,-0.0219 -0.129167,-0.0314 -0.184938,-0.0299 z m 12.229108,1.6729 c -0.103059,0.11626 -0.170268,0.25854 -0.196135,0.4094 -0.02091,-0.10502 -0.05128,-0.19981 -0.09421,-0.27824 0.04165,-0.0145 0.0841,-0.0309 0.12741,-0.0493 0.06788,-0.0287 0.121091,-0.0558 0.162932,-0.0819 z"
       inkscape:export-filename="audience.png"
       inkscape:export-xdpi="1122.51"
       inkscape:export-ydpi="1122.51" />
    <ellipse
       style="fill:#666666;stroke:#000000;stroke-width:0.1;stroke-linecap:round;stroke-dasharray:none"
       id="path1386-58-6"
       cx="29.29616"
       cy="50.332405"
       rx="0.47738403"
       ry="0.5383417"
       inkscape:export-filename="sound.png"
       inkscape:export-xdpi="1122.51"
       inkscape:export-ydpi="1122.51" />
    <path
       id="rect2438"
       style="fill:#e5e5e5;fill-opacity:1;stroke:#000000;stroke-width:0.0859264;stroke-linecap:round;stroke-dasharray:none"
       d="M 25.219132 94.559086 C 25.065553 94.559086 24.925609 94.615417 24.818123 94.707914 L 24.817607 94.707914 C 24.737783 94.709379 24.657471 94.7357 24.589197 94.788529 L 22.553662 96.364144 C 22.385243 96.494464 22.354096 96.73471 22.484416 96.903129 C 22.614736 97.071548 22.855499 97.102179 23.023918 96.971859 L 24.6047 95.749194 L 24.6047 100.95818 C 24.6047 101.29856 24.878754 101.57261 25.219132 101.57261 L 27.998291 101.57261 C 28.338669 101.57261 28.612724 101.29856 28.612724 100.95818 L 28.612724 95.796737 L 30.063798 97.021985 C 30.226503 97.159372 30.46798 97.138698 30.605367 96.975993 C 30.742754 96.813288 30.722597 96.571811 30.559892 96.434424 L 28.593087 94.773543 C 28.527268 94.717967 28.448327 94.688074 28.368811 94.68311 C 28.265908 94.605379 28.137764 94.559086 27.998291 94.559086 L 25.219132 94.559086 z "
       inkscape:export-filename="artist.png"
       inkscape:export-xdpi="1122.51"
       inkscape:export-ydpi="1122.51" />
    <rect
       style="fill:#808080;stroke:#000000;stroke-width:0.0869907;stroke-linecap:round;stroke-dasharray:none"
       id="rect2232"
       width="2.3323491"
       height="17.817839"
       x="65.001961"
       y="89.956085"
       ry="0.66865057"
       transform="matrix(0.99555961,0.0941332,-0.04904586,0.99879653,0,0)"
       inkscape:export-filename="../../../../rect2232.png"
       inkscape:export-xdpi="1122.51"
       inkscape:export-ydpi="1122.51" />
    <path
       style="fill:#ffffff;stroke:#000000;stroke-width:0.1;stroke-linecap:round;stroke-dasharray:none"
       d="m 70.107614,135.26273 -0.04457,2.23424 8.152265,-1.59865 v -2.13786 z"
       id="path1331"
       inkscape:export-filename="../../../../path1331.png"
       inkscape:export-xdpi="1122.51"
       inkscape:export-ydpi="1122.51" />
    <path
       style="fill:#808080;stroke:#000000;stroke-width:0.1;stroke-linecap:round;stroke-dasharray:none"
       d="m 64.175126,126.86699 c -1.074938,1.84587 -1.892699,3.86278 -2.518537,5.9567 2.208434,0.95613 4.943256,1.07192 7.637203,1.00848 1.368918,-1.92802 2.186557,-4.16363 2.71016,-6.29055 -2.369608,-0.48488 -4.866497,-0.83187 -7.828826,-0.67463 z"
       id="path1329" />
    <path
       style="fill:#ffffff;stroke:#000000;stroke-width:0.1;stroke-linecap:round;stroke-dasharray:none"
       d="m 60.379119,134.01692 -0.05219,2.17816 9.544637,1.35702 0.02584,-2.25671 z"
       id="path1327" />
    <path
       style="fill:#ffffff;stroke:#000000;stroke-width:0.1;stroke-linecap:round;stroke-dasharray:none"
       d="m 77.678321,125.92129 -3.716569,0.78962 -3.839559,8.31163 8.173145,-1.51567 z"
       id="path1323" />
    <path
       style="fill:#ffffff;stroke:#000000;stroke-width:0.1;stroke-linecap:round;stroke-dasharray:none"
       d="m 66.696563,125.2004 -3.027722,0.61289 10.145633,0.78289 3.627169,-0.7953 z"
       id="rect234" />
    <ellipse
       style="fill:#666666;stroke:#000000;stroke-width:0.1;stroke-linecap:round;stroke-dasharray:none"
       id="path1319"
       cx="117.57668"
       cy="94.93573"
       rx="1.5493476"
       ry="1.9320179"
       transform="rotate(21.145069)" />
    <ellipse
       style="fill:#666666;stroke:#000000;stroke-width:0.1;stroke-linecap:round;stroke-dasharray:none"
       id="path1386"
       cx="61.923679"
       cy="136.89256"
       rx="0.47738403"
       ry="0.5383417" />
    <ellipse
       style="fill:#666666;stroke:#000000;stroke-width:0.1;stroke-linecap:round;stroke-dasharray:none"
       id="path1386-1"
       cx="68.344017"
       cy="137.88487"
       rx="0.47738403"
       ry="0.5383417" />
    <ellipse
       style="fill:#666666;stroke:#000000;stroke-width:0.1;stroke-linecap:round;stroke-dasharray:none"
       id="path1386-58"
       cx="76.845757"
       cy="136.72931"
       rx="0.47738403"
       ry="0.5383417" />
    <path
       id="path2200"
       style="fill:#808080;fill-opacity:0.201807;stroke:#000000;stroke-width:0.0788436;stroke-linecap:round"
       d="m 62.120796,106.68056 c 5.680123,0.16158 10.177049,1.3952 10.17706,2.89304 1.2e-5,1.60769 -5.088781,2.91099 -11.366124,2.91099 -6.277343,0 -11.366135,-1.3033 -11.366123,-2.91099 1.1e-5,-1.43399 4.858928,-2.69723 10.188355,-2.93802"
       sodipodi:nodetypes="csssc" />
    <path
       id="path2200-1"
       style="fill:#808080;fill-opacity:0.195783;stroke:#000000;stroke-width:0.0788436;stroke-linecap:round"
       d="m 62.308213,102.34815 c 5.586481,0.18381 10.004665,1.44009 10.004656,2.92085 -9e-6,1.60769 -5.088795,2.91098 -11.366123,2.91098 -6.277328,0 -11.366114,-1.30329 -11.366123,-2.91098 -8e-6,-1.45328 4.883567,-2.70843 10.319071,-2.92642"
       sodipodi:nodetypes="csssc" />
    <path
       id="path2200-4"
       style="fill:#808080;fill-opacity:0.195783;stroke:#000000;stroke-width:0.0788436;stroke-linecap:round"
       d="m 62.615785,97.849224 c 5.516662,0.199863 10.063453,1.430961 10.063458,2.899006 v 2e-5 c 6e-6,1.60769 -5.08878,2.91099 -11.366123,2.91099 -6.277343,0 -11.366129,-1.3033 -11.366123,-2.91099 5e-6,-1.465183 4.732696,-2.677539 10.233633,-2.880957"
       sodipodi:nodetypes="cssssc" />
    <path
       id="rect2393"
       style="fill:#cccccc;fill-opacity:1;stroke:#000000;stroke-width:0.0456527;stroke-linecap:round"
       d="m 16.988157,97.423354 c 5.703813,1.098263 12.317715,1.239197 20.243648,0 0.164599,-0.02573 0.301634,0.102246 0.301634,0.229252 v 6.544714 c 0,0.127 -0.134529,0.22926 -0.301634,0.22926 H 16.988157 c -0.167104,0 -0.301633,-0.10226 -0.301633,-0.22926 v -6.544714 c 0,-0.127006 0.138287,-0.260705 0.301633,-0.229252 z"
       sodipodi:nodetypes="sssssssss" />
    <rect
       style="fill:#cccccc;fill-opacity:1;stroke:#000000;stroke-width:0.1;stroke-linecap:round;stroke-dasharray:none"
       id="rect2396"
       width="7.430162"
       height="2.3083999"
       x="28.332922"
       y="92.923035"
       ry="0.66865057"
       transform="rotate(6.1070059)" />
    <rect
       style="fill:#cccccc;fill-opacity:1;stroke:#000000;stroke-width:0.1;stroke-linecap:round;stroke-dasharray:none"
       id="rect2396-5"
       width="7.430162"
       height="2.3083999"
       x="19.17663"
       y="98.389656"
       ry="0.66865057"
       transform="rotate(-5.1321371)" />
    <rect
       style="fill:#e5e5e5;fill-opacity:1;stroke:#000000;stroke-width:0.131416;stroke-linecap:round;stroke-dasharray:none"
       id="rect2440"
       width="1.6042845"
       height="1.7944838"
       x="25.616325"
       y="92.147499"
       ry="0.44862059"
       rx="0.72275144" />
    <ellipse
       style="fill:#666666;stroke:#000000;stroke-width:0.1;stroke-linecap:round;stroke-dasharray:none"
       id="path1386-8"
       cx="19.690142"
       cy="96.776054"
       rx="0.47738403"
       ry="0.5383417" />
    <ellipse
       style="fill:#666666;stroke:#000000;stroke-width:0.1;stroke-linecap:round;stroke-dasharray:none"
       id="path1386-3"
       cx="33.947769"
       cy="96.847137"
       rx="0.47738403"
       ry="0.5383417" />
    <ellipse
       style="fill:#666666;stroke:#000000;stroke-width:0.1;stroke-linecap:round;stroke-dasharray:none"
       id="path1386-3-6"
       cx="31.585428"
       cy="97.15358"
       rx="0.47738403"
       ry="0.5383417" />
    <ellipse
       style="fill:#666666;stroke:#000000;stroke-width:0.1;stroke-linecap:round;stroke-dasharray:none"
       id="path1386-3-0"
       cx="29.223087"
       cy="97.490036"
       rx="0.47738403"
       ry="0.5383417" />
    <ellipse
       style="fill:#666666;stroke:#000000;stroke-width:0.1;stroke-linecap:round;stroke-dasharray:none"
       id="path1386-3-4"
       cx="24.288651"
       cy="97.279747"
       rx="0.47738403"
       ry="0.5383417" />
    <ellipse
       style="fill:#666666;stroke:#000000;stroke-width:0.1;stroke-linecap:round;stroke-dasharray:none"
       id="path1386-3-09"
       cx="21.842194"
       cy="97.069466"
       rx="0.47738403"
       ry="0.5383417" />
    <rect
       style="fill:#ffffff;fill-opacity:1;stroke:#000000;stroke-width:0.1;stroke-linecap:round;stroke-dasharray:none"
       id="rect2645"
       width="15.237995"
       height="11.266135"
       x="57.111275"
       y="147.6749"
       ry="0.16317217"
       inkscape:export-filename="maths.png"
       inkscape:export-xdpi="1122.51"
       inkscape:export-ydpi="1122.51" />
    <ellipse
       style="fill:#b3b3b3;fill-opacity:1;stroke:#000000;stroke-width:0.1;stroke-linecap:round;stroke-dasharray:none"
       id="path2699"
       cx="61.171856"
       cy="151.43103"
       rx="1.3109938"
       ry="0.92561162" />
    <ellipse
       style="fill:#b3b3b3;fill-opacity:1;stroke:#000000;stroke-width:0.1;stroke-linecap:round;stroke-dasharray:none"
       id="path2701"
       cx="67.945328"
       cy="155.85339"
       rx="1.4670645"
       ry="1.0284573" />
    <rect
       style="fill:#b3b3b3;fill-opacity:1;stroke:#000000;stroke-width:0.10091806;stroke-linecap:round;stroke-dasharray:none"
       id="rect2705"
       width="1.7462751"
       height="10.715271"
       x="157.62862"
       y="83.935257"
       ry="0.19875693"
       transform="matrix(0.81601252,0.57803423,-0.72216602,0.69171977,0,0)" />
    <rect
       style="fill:#ffffff;fill-opacity:1;stroke:#000000;stroke-width:0.10596;stroke-linecap:round;stroke-dasharray:none"
       id="rect2777"
       width="9.3673267"
       height="20.009914"
       x="68.154587"
       y="28.269299"
       ry="0.39586043"
       inkscape:export-filename="midi.png"
       inkscape:export-xdpi="1122.51"
       inkscape:export-ydpi="1122.51" />
    <rect
       style="fill:#ffffff;fill-opacity:1;stroke:#000000;stroke-width:0.122783;stroke-linecap:round;stroke-dasharray:none"
       id="rect2779"
       width="6.1772618"
       height="2.0276241"
       x="68.45591"
       y="31.987968"
       ry="0.38011768" />
    <rect
       style="fill:#ffffff;fill-opacity:1;stroke:#000000;stroke-width:0.122783;stroke-linecap:round;stroke-dasharray:none"
       id="rect2779-9"
       width="6.1772618"
       height="2.0276241"
       x="68.431503"
       y="34.868305"
       ry="0.38011768" />
    <rect
       style="fill:#ffffff;fill-opacity:1;stroke:#000000;stroke-width:0.122783;stroke-linecap:round;stroke-dasharray:none"
       id="rect2779-30"
       width="6.1772618"
       height="2.0276241"
       x="68.524643"
       y="40.708321"
       ry="0.38011768" />
    <rect
       style="fill:#ffffff;fill-opacity:1;stroke:#000000;stroke-width:0.122783;stroke-linecap:round;stroke-dasharray:none"
       id="rect2779-4"
       width="6.1772618"
       height="2.0276241"
       x="68.45929"
       y="29.449366"
       ry="0.38011768" />
    <rect
       style="fill:#ffffff;fill-opacity:1;stroke:#000000;stroke-width:0.122783;stroke-linecap:round;stroke-dasharray:none"
       id="rect2779-3"
       width="6.1772618"
       height="2.0276241"
       x="68.553558"
       y="37.651001"
       ry="0.38011768" />
    <rect
       style="fill:#ffffff;fill-opacity:1;stroke:#000000;stroke-width:0.122783;stroke-linecap:round;stroke-dasharray:none"
       id="rect2779-1"
       width="6.1772618"
       height="2.0276241"
       x="68.439171"
       y="43.45134"
       ry="0.38011768" />
    <rect
       style="fill:#ffffff;fill-opacity:1;stroke:#000000;stroke-width:0.122783;stroke-linecap:round;stroke-dasharray:none"
       id="rect2779-5"
       width="6.1772618"
       height="2.0276241"
       x="68.413208"
       y="45.80381"
       ry="0.38011768" />
    <rect
       style="fill:#1a1a1a;fill-opacity:1;stroke:#000000;stroke-width:0.102832;stroke-linecap:round;stroke-dasharray:none"
       id="rect2781"
       width="5.2208166"
       height="2.1452146"
       x="71.814468"
       y="35.737072"
       ry="0.38388202" />
    <rect
       style="fill:#1a1a1a;fill-opacity:1;stroke:#000000;stroke-width:0.102832;stroke-linecap:round;stroke-dasharray:none"
       id="rect2781-3"
       width="5.2208166"
       height="2.1452146"
       x="71.692421"
       y="33.052017"
       ry="0.38388202"
       inkscape:transform-center-x="-1.1716609"
       inkscape:transform-center-y="3.5149827" />
    <rect
       style="fill:#1a1a1a;fill-opacity:1;stroke:#000000;stroke-width:0.1;stroke-linecap:round;stroke-dasharray:none"
       id="rect2781-1"
       width="4.9307332"
       height="2.1480463"
       x="72.252434"
       y="42.130978"
       ry="0.38438874" />
    <rect
       style="fill:#1a1a1a;fill-opacity:1;stroke:#000000;stroke-width:0.1;stroke-linecap:round;stroke-dasharray:none"
       id="rect2781-1-8"
       width="4.9307332"
       height="2.1480463"
       x="72.228012"
       y="45.206589"
       ry="0.38438874" />
    <rect
       style="fill:#1a1a1a;fill-opacity:1;stroke:#000000;stroke-width:0.1;stroke-linecap:round;stroke-dasharray:none"
       id="rect2781-1-7"
       width="4.9307332"
       height="2.1480463"
       x="71.837463"
       y="30.365547"
       ry="0.38438874" />
    <path
       id="rect3065"
       style="fill:#cccccc;stroke:#000000;stroke-width:0.1;stroke-linecap:round"
       d="M 21.653459 30.93868 C 20.670622 30.930659 19.224267 31.001073 18.408179 31.144869 L 12.339299 32.214054 C 11.406625 32.378392 12.912288 32.827181 13.858586 32.864661 L 23.72465 33.255334 C 24.670949 33.292811 25.894594 32.844548 26.801465 32.571655 L 29.364616 31.800126 C 30.271487 31.527233 28.575719 31.1875 27.629321 31.15262 L 22.043099 30.946948 C 21.924799 30.942588 21.793864 30.939826 21.653459 30.93868 z M 29.229224 32.427478 C 29.145772 32.428779 29.060986 32.440078 28.974976 32.462101 L 26.376168 33.127694 C 25.458726 33.362612 24.663477 33.882883 24.659477 34.829915 L 24.591781 50.801034 C 24.587756 51.748067 25.488927 52.528955 26.293486 52.029382 L 28.640629 50.572107 C 29.445187 50.072535 30.33671 49.816701 30.35732 48.869885 L 30.677197 34.178792 C 30.695876 33.32074 30.035921 32.414904 29.229224 32.427478 z M 12.669511 33.162834 C 11.798287 33.182774 11.067763 33.595012 11.087179 34.48265 L 11.429277 50.112187 C 11.449988 51.059 12.194308 51.751314 13.138733 51.821643 L 22.321118 52.505322 C 23.265543 52.575651 24.030575 51.742906 24.030575 50.795866 L 24.030575 35.215422 C 24.030575 34.26838 23.267542 33.540115 22.321118 33.505965 L 12.845728 33.163867 C 12.786576 33.161733 12.727592 33.161504 12.669511 33.162834 z " />
    <ellipse
       style="fill:#ffffff;fill-opacity:1;stroke:#000000;stroke-width:0.1;stroke-linecap:round;stroke-dasharray:none"
       id="path3240"
       cx="23.089905"
       cy="43.465332"
       rx="3.3945448"
       ry="3.9562323"
       transform="rotate(7.091127)" />
    <ellipse
       style="fill:#666666;stroke:#000000;stroke-width:0.1;stroke-linecap:round;stroke-dasharray:none"
       id="path1386-5-8"
       cx="17.679836"
       cy="45.927845"
       rx="0.47738403"
       ry="0.5383417" />
    <ellipse
       style="fill:#ffffff;fill-opacity:1;stroke:#000000;stroke-width:0.1;stroke-linecap:round;stroke-dasharray:none"
       id="path3240-1"
       transform="rotate(6.1897846)"
       ry="2.8228245"
       rx="2.4518204"
       cy="35.720081"
       cx="21.723009" />
    <ellipse
       style="fill:#666666;stroke:#000000;stroke-width:0.1;stroke-linecap:round;stroke-dasharray:none"
       id="path1386-5"
       cx="13.530664"
       cy="52.276207"
       rx="0.47738403"
       ry="0.5383417" />
    <ellipse
       style="fill:#666666;stroke:#000000;stroke-width:0.1;stroke-linecap:round;stroke-dasharray:none"
       id="path1386-1-7"
       cx="22.1064"
       cy="52.987377"
       rx="0.47738403"
       ry="0.5383417" />
    <ellipse
       style="fill:#666666;stroke:#000000;stroke-width:0.1;stroke-linecap:round;stroke-dasharray:none"
       id="path1386-5-9"
       cx="17.719566"
       cy="38.1805"
       rx="0.47738403"
       ry="0.5383417" />
    <g
       id="g4619">
      <ellipse
         style="fill:#666666;stroke:#000000;stroke-width:0.1;stroke-linecap:round;stroke-dasharray:none"
         id="path1386-58-6-5"
         cx="54.217888"
         cy="50.985828"
         rx="0.47738403"
         ry="0.5383417" />
      <path
         id="rect3065-2"
         style="fill:#cccccc;stroke:#000000;stroke-width:0.1;stroke-linecap:round"
         d="m 46.575187,31.592102 c -0.982837,-0.008 -2.429192,0.06239 -3.24528,0.206189 l -6.06888,1.069185 c -0.932674,0.164338 0.572989,0.613127 1.519287,0.650607 l 9.866064,0.390673 c 0.946299,0.03748 2.169944,-0.410786 3.076815,-0.683679 l 2.563151,-0.771529 c 0.906871,-0.272893 -0.788897,-0.612626 -1.735295,-0.647506 L 46.964827,31.60037 c -0.1183,-0.0044 -0.249235,-0.0071 -0.38964,-0.0083 z m 7.575765,1.488798 c -0.08345,0.0013 -0.168238,0.0126 -0.254248,0.03462 l -2.598808,0.665593 c -0.917442,0.234918 -1.712691,0.755189 -1.716691,1.702221 l -0.0677,15.971119 c -0.004,0.947033 0.897146,1.727921 1.701705,1.228348 l 2.347143,-1.457275 c 0.804558,-0.499572 1.696081,-0.755406 1.716691,-1.702222 l 0.319877,-14.691093 c 0.01868,-0.858052 -0.641276,-1.763888 -1.447973,-1.751314 z m -16.559713,0.735356 c -0.871224,0.01994 -1.601748,0.432178 -1.582332,1.319816 l 0.342098,15.629537 c 0.02071,0.946813 0.765031,1.639127 1.709456,1.709456 l 9.182385,0.683679 c 0.944425,0.07033 1.709457,-0.762416 1.709457,-1.709456 V 35.868844 c 0,-0.947042 -0.763033,-1.675307 -1.709457,-1.709457 l -9.47539,-0.342098 c -0.05915,-0.0021 -0.118136,-0.0024 -0.176217,-0.001 z" />
      <ellipse
         style="fill:#ffffff;fill-opacity:1;stroke:#000000;stroke-width:0.1;stroke-linecap:round;stroke-dasharray:none"
         id="path3240-0"
         cx="47.901672"
         cy="41.037224"
         rx="3.3945448"
         ry="3.9562323"
         transform="rotate(7.091127)" />
      <ellipse
         style="fill:#666666;stroke:#000000;stroke-width:0.1;stroke-linecap:round;stroke-dasharray:none"
         id="path1386-5-8-7"
         cx="42.601566"
         cy="46.581268"
         rx="0.47738403"
         ry="0.5383417" />
      <ellipse
         style="fill:#ffffff;fill-opacity:1;stroke:#000000;stroke-width:0.1;stroke-linecap:round;stroke-dasharray:none"
         id="path3240-1-7"
         transform="rotate(6.1897846)"
         ry="2.8228245"
         rx="2.4518204"
         cy="33.682579"
         cx="46.569904" />
      <ellipse
         style="fill:#666666;stroke:#000000;stroke-width:0.1;stroke-linecap:round;stroke-dasharray:none"
         id="path1386-5-97"
         cx="38.452393"
         cy="52.92963"
         rx="0.47738403"
         ry="0.5383417" />
      <ellipse
         style="fill:#666666;stroke:#000000;stroke-width:0.1;stroke-linecap:round;stroke-dasharray:none"
         id="path1386-1-7-5"
         cx="47.02813"
         cy="53.640797"
         rx="0.47738403"
         ry="0.5383417" />
      <ellipse
         style="fill:#666666;stroke:#000000;stroke-width:0.1;stroke-linecap:round;stroke-dasharray:none"
         id="path1386-5-9-3"
         cx="42.641296"
         cy="38.833923"
         rx="0.47738403"
         ry="0.5383417" />
    </g>
    <rect
       style="fill:#ececec;fill-opacity:1;stroke:#000000;stroke-width:0.1;stroke-linecap:round;stroke-dasharray:none"
       id="rect3758"
       width="2.205313"
       height="2.7326703"
       x="20.032608"
       y="112.75162"
       ry="1.1026565" />
    <path
       id="rect3812"
       style="fill:#ececec;stroke:#000000;stroke-width:0.1;stroke-linecap:round"
       d="M 20.640601 115.72989 C 20.190823 115.72326 19.751942 115.96566 19.638078 116.40943 C 19.629865 116.44144 19.621354 116.47336 19.612756 116.50503 C 19.414905 116.21138 19.033987 115.93772 18.723405 116.03426 L 17.173112 116.5164 C 16.571613 116.623 15.292753 117.24143 14.7283 117.475 L 13.337687 118.05068 C 13.132158 118.13572 13.152477 118.27875 13.288595 118.41758 C 13.072763 118.36415 12.836532 118.41741 12.670544 118.58708 C 11.224188 120.06541 11.014484 118.35218 9.6815796 122.97751 C 9.5786957 123.33453 9.4032495 123.65656 9.6598755 123.92525 C 9.9165014 124.19396 10.496144 124.30174 10.608138 123.94747 C 11.633486 120.70405 11.677985 119.51336 13.597103 119.55756 C 13.946164 119.56559 13.885362 118.9582 13.663765 118.66201 C 13.930226 118.78097 14.254132 118.8451 14.488521 118.76949 C 14.488521 118.76949 17.531757 117.42884 18.137911 117.35304 L 19.420003 117.1112 C 18.699163 119.10986 17.36326 120.56211 17.791679 123.49944 C 17.879843 124.10391 16.858333 124.27501 17.779793 124.66319 C 18.701254 125.05137 19.345114 124.78896 19.582267 124.22601 L 22.029146 118.41706 L 22.070487 118.50078 C 22.373321 119.03131 23.125203 122.27057 23.125203 122.27057 C 23.188545 122.45487 23.35561 122.63113 23.54895 122.76718 C 23.315333 122.98232 23.168147 123.30955 23.407357 123.43174 C 25.116889 124.30493 23.889796 125.3002 23.677625 128.30535 C 23.651455 128.67598 23.657444 128.98772 24.010937 128.87327 C 24.364426 128.75882 24.363286 128.3919 24.442436 128.02888 C 24.841531 127.23069 24.502185 126.78054 24.628471 126.28893 C 25.221236 123.98139 24.652068 124.62165 24.683248 123.01833 C 24.687168 122.81607 24.541293 122.67243 24.350452 122.60182 L 24.017139 121.30216 C 23.865562 120.71039 23.593873 119.3158 23.318473 118.77053 L 22.77432 117.24091 C 22.724454 117.10071 22.603511 116.9952 22.45341 116.92361 C 22.384458 116.57747 22.150327 116.27106 21.799186 116.12314 L 21.082434 115.82135 C 20.941694 115.76207 20.790526 115.7321 20.640601 115.72989 z " />
    <path
       id="rect3814"
       style="fill:#ececec;stroke:#000000;stroke-width:0.1;stroke-linecap:round"
       d="M 17.161743 125.41353 C 16.758648 125.42437 16.578032 125.8563 16.465145 126.35921 L 14.926221 133.21564 C 14.798406 133.78505 13.890508 134.63861 14.316956 134.87601 C 14.14993 134.9829 13.965118 135.14491 13.791406 135.34626 L 10.239685 139.46332 C 9.8406469 139.92585 9.6548708 140.41521 9.823173 140.56041 C 9.9914752 140.70561 10.447845 140.45037 10.846883 139.98784 L 14.399121 135.87026 C 14.672413 135.55349 14.845525 135.22431 14.873511 135.00158 C 15.335233 134.99628 15.760314 134.69981 15.909106 134.2347 L 18.260901 126.88321 C 18.270669 126.85268 18.278683 126.82189 18.285706 126.79123 L 18.88877 133.56549 C 18.940519 134.14664 18.336453 135.23571 18.814355 135.33231 C 18.687905 135.485 18.561322 135.69544 18.457271 135.94002 L 16.328719 140.94385 C 16.089586 141.50597 16.061649 142.02886 16.266191 142.11587 C 16.470732 142.20289 16.828042 141.82016 17.067175 141.25804 L 19.195728 136.25422 C 19.359384 135.86951 19.42434 135.50342 19.383313 135.2827 C 19.821361 135.13691 20.135722 134.72451 20.135722 134.23625 L 20.135722 126.51786 C 20.135722 125.90699 19.643818 125.41508 19.032947 125.41508 L 18.88877 125.41508 C 18.41058 125.41508 18.266401 125.74785 18.252116 126.18403 C 18.142126 125.86858 17.890321 125.60733 17.546216 125.49725 L 17.409273 125.45332 C 17.318363 125.42424 17.23639 125.41153 17.161743 125.41353 z " />
    <rect
       style="fill:#ececec;fill-opacity:1;stroke:#000000;stroke-width:0.1;stroke-linecap:round;stroke-dasharray:none"
       id="rect3758-9"
       width="2.205313"
       height="2.7326703"
       x="-31.05867"
       y="115.83876"
       ry="1.1026565"
       transform="scale(-1,1)" />
    <path
       id="rect3812-5"
       style="fill:#ececec;stroke:#000000;stroke-width:0.1;stroke-linecap:round"
       d="m 30.450678,118.81703 c 0.449778,-0.007 0.888659,0.23577 1.002523,0.67954 0.0082,0.032 0.01672,0.0639 0.02532,0.0956 0.197851,-0.29365 0.578769,-0.56731 0.889351,-0.47077 l 1.550293,0.48214 c 0.601499,0.1066 1.880359,0.72503 2.444812,0.9586 l 1.390613,0.57568 c 0.205529,0.085 0.18521,0.22807 0.04909,0.3669 0.215832,-0.0534 0.452063,-1.7e-4 0.618051,0.1695 1.446356,1.47833 1.65606,-0.2349 2.988964,4.39043 0.102884,0.35702 0.278331,0.67905 0.0217,0.94774 -0.256625,0.26871 -0.836268,0.37649 -0.948262,0.0222 -1.025348,-3.24342 -0.580742,-4.54698 -2.49986,-4.50278 -0.349061,0.008 -0.777364,-0.48649 -0.555765,-0.78268 -0.266461,0.11896 -0.590367,0.18309 -0.824756,0.10748 0,0 -3.043236,-1.34065 -3.64939,-1.41645 l -1.282092,-0.24184 c 0.72084,1.99866 2.056743,3.45091 1.628324,6.38824 -0.08816,0.60447 0.933346,0.77557 0.01189,1.16375 -0.921461,0.38818 -1.565321,0.12577 -1.802474,-0.43718 l -2.446879,-5.80895 -0.04134,0.0837 c -0.302834,0.53053 -1.054716,3.76979 -1.054716,3.76979 -0.06334,0.1843 -0.230407,0.36056 -0.423747,0.49661 0.233617,0.21514 0.380803,0.54237 0.141593,0.66456 -1.709532,0.87319 -0.482439,1.86846 -0.270268,4.87361 0.02617,0.37063 0.02018,0.68237 -0.333312,0.56792 -0.353489,-0.11445 -0.352349,-0.48137 -0.431499,-0.84439 -0.399095,-0.79819 -0.05975,-1.24834 -0.186035,-1.73995 -0.592765,-2.30754 -0.0236,-1.66728 -0.05478,-3.2706 -0.0039,-0.20226 0.141955,-0.3459 0.332796,-0.41651 l 0.333313,-1.29966 c 0.151577,-0.59177 0.423266,-1.98636 0.698666,-2.53163 l 0.544153,-1.52962 c 0.04987,-0.1402 0.170809,-0.24571 0.32091,-0.3173 0.06895,-0.34614 0.303083,-0.65255 0.654224,-0.80047 l 0.716752,-0.30179 c 0.14074,-0.0593 0.291908,-0.0892 0.441833,-0.0915 z"
       sodipodi:nodetypes="cscccccccssccccccssccccccsscscccccccccc" />
    <path
       id="rect3814-3"
       style="fill:#ececec;stroke:#000000;stroke-width:0.1;stroke-linecap:round"
       d="m 34.216195,127.24752 c 0.399405,-0.0555 0.648444,0.34101 0.842311,0.81858 l 2.64296,6.51105 c 0.219502,0.54072 1.255136,1.23376 0.873415,1.53791 0.182299,0.078 0.391187,0.20753 0.595579,0.37766 l 4.179053,3.47856 c 0.469515,0.3908 0.73306,0.84305 0.590861,1.01389 -0.1422,0.17085 -0.634261,-0.006 -1.103777,-0.39686 l -4.179648,-3.47899 c -0.321559,-0.26764 -0.546332,-0.56396 -0.61048,-0.77908 -0.456286,0.0708 -0.924296,-0.15219 -1.14738,-0.58659 l -3.526037,-6.86603 c -0.01467,-0.0285 -0.0276,-0.0576 -0.03957,-0.0867 l 0.516515,6.78141 c 0.0443,0.58176 0.818855,1.55697 0.363282,1.73067 0.149788,0.12987 0.309181,0.31669 0.451949,0.54089 l 2.920654,4.58681 c 0.328116,0.51527 0.441462,1.02649 0.253968,1.14588 -0.187496,0.11938 -0.602753,-0.19953 -0.930869,-0.7148 l -2.920654,-4.5868 c -0.224555,-0.35264 -0.348693,-0.70312 -0.344434,-0.92758 -0.456031,-0.0719 -0.833792,-0.42718 -0.913897,-0.90882 l -1.266305,-7.61381 c -0.100221,-0.60259 0.304313,-1.16854 0.906906,-1.26876 l 0.142222,-0.0237 c 0.47171,-0.0785 0.668531,0.22615 0.754184,0.65407 0.05674,-0.32922 0.262277,-0.62824 0.583659,-0.79328 l 0.127885,-0.0658 c 0.0849,-0.0436 0.163683,-0.0696 0.237646,-0.0799 z" />
    <rect
       style="fill:#ececec;fill-opacity:1;stroke:#000000;stroke-width:0.1;stroke-linecap:round;stroke-dasharray:none"
       id="rect4182"
       width="18.196266"
       height="12.0292"
       x="18.311054"
       y="154.75742"
       ry="0.67329121"
       inkscape:export-filename="camera.png"
       inkscape:export-xdpi="1122.51"
       inkscape:export-ydpi="1122.51" />
    <ellipse
       style="fill:#333333;fill-opacity:1;stroke:#000000;stroke-width:0.1;stroke-linecap:round;stroke-dasharray:none"
       id="path4184"
       cx="27.981226"
       cy="161.26889"
       rx="5.475224"
       ry="4.0533171" />
    <ellipse
       style="fill:#ffffff;fill-opacity:1;stroke:#000000;stroke-width:0.1;stroke-linecap:round;stroke-dasharray:none"
       id="path4188"
       cx="34.21917"
       cy="156.3526"
       rx="0.98063713"
       ry="1.0721701" />
    <ellipse
       style="fill:#f9f9f9;fill-opacity:1;stroke:#000000;stroke-width:0.1;stroke-linecap:round;stroke-dasharray:none"
       id="path4294"
       cx="29.64286"
       cy="162.73331"
       rx="1.5254356"
       ry="1.2290704" />
    <path
       id="path4683"
       style="fill:#ffffff;fill-opacity:1;stroke:#000000;stroke-width:0.1;stroke-linecap:round;stroke-dasharray:none"
       d="m 19.096715,98.956818 c -0.112554,0 -0.203192,0.0594 -0.203192,0.13323 0,0.0738 0.09064,0.13323 0.203192,0.13323 h 1.628422 v 0.310871 h -1.449306 c -0.112553,0 -0.203191,0.0594 -0.203191,0.13323 0,0.0738 0.09064,0.13323 0.203191,0.13323 h 1.449306 v 1.898681 a 1.0027308,0.67967842 0 0 0 -0.243958,0.44368 1.0027308,0.67967842 0 0 0 1.002798,0.67961 1.0027308,0.67967842 0 0 0 1.002796,-0.67961 1.0027308,0.67967842 0 0 0 -0.982895,-0.67962 v -2.251232 c 0,-0.14145 -0.173644,-0.2553 -0.38937,-0.2553 -0.0527,0 -0.102862,0.007 -0.148622,0.0191 -0.03064,-0.0121 -0.06675,-0.0191 -0.105288,-0.0191 z" />
    <path
       id="path4683-1"
       style="fill:#ffffff;fill-opacity:1;stroke:#000000;stroke-width:0.1;stroke-linecap:round;stroke-dasharray:none"
       d="m 22.500661,99.131484 c -0.112554,0 -0.203192,0.0594 -0.203192,0.13323 0,0.0738 0.09064,0.13323 0.203192,0.13323 h 1.628422 v 0.310872 h -1.449306 c -0.112553,0 -0.203191,0.0594 -0.203191,0.13323 0,0.0738 0.09064,0.133231 0.203191,0.133231 h 1.449306 v 1.898683 a 1.0027308,0.67967842 0 0 0 -0.243958,0.44368 1.0027308,0.67967842 0 0 0 1.002798,0.67961 1.0027308,0.67967842 0 0 0 1.002796,-0.67961 1.0027308,0.67967842 0 0 0 -0.982895,-0.67962 v -2.251236 c 0,-0.14145 -0.173644,-0.2553 -0.38937,-0.2553 -0.0527,0 -0.102862,0.007 -0.148622,0.0191 -0.03064,-0.0121 -0.06675,-0.0191 -0.105288,-0.0191 z" />
    <path
       id="path4683-5"
       style="fill:#ffffff;fill-opacity:1;stroke:#000000;stroke-width:0.1;stroke-linecap:round;stroke-dasharray:none"
       d="m 28.93302,100.1672 c -0.112554,0 -0.203192,0.0594 -0.203192,0.13323 0,0.0738 0.09064,0.13323 0.203192,0.13323 h 1.628422 v 0.31087 h -1.449306 c -0.112553,0 -0.203191,0.0594 -0.203191,0.13323 0,0.0738 0.09064,0.13323 0.203191,0.13323 h 1.449306 v 1.89868 a 1.0027308,0.67967842 0 0 0 -0.243958,0.44368 1.0027308,0.67967842 0 0 0 1.002798,0.67961 1.0027308,0.67967842 0 0 0 1.002796,-0.67961 1.0027308,0.67967842 0 0 0 -0.982895,-0.67962 v -2.25123 c 0,-0.14145 -0.173644,-0.2553 -0.38937,-0.2553 -0.0527,0 -0.102862,0.007 -0.148622,0.0191 -0.03064,-0.0121 -0.06675,-0.0191 -0.105288,-0.0191 z" />
    <path
       id="path4683-17"
       style="fill:#ffffff;fill-opacity:1;stroke:#000000;stroke-width:0.1;stroke-linecap:round;stroke-dasharray:none"
       d="m 32.064408,100.22171 c -0.112554,0 -0.203192,0.0594 -0.203192,0.13323 0,0.0738 0.09064,0.13323 0.203192,0.13323 h 1.628422 v 0.31088 h -1.449306 c -0.112553,0 -0.203191,0.0594 -0.203191,0.13323 0,0.0738 0.09064,0.13323 0.203191,0.13323 h 1.449306 v 1.89868 a 1.0027308,0.67967842 0 0 0 -0.243958,0.44368 1.0027308,0.67967842 0 0 0 1.002798,0.67961 1.0027308,0.67967842 0 0 0 1.002796,-0.67961 1.0027308,0.67967842 0 0 0 -0.982895,-0.67962 v -2.25124 c 0,-0.14145 -0.173644,-0.2553 -0.38937,-0.2553 -0.0527,0 -0.102862,0.007 -0.148622,0.0191 -0.03064,-0.0121 -0.06675,-0.0191 -0.105288,-0.0191 z" />
  </g>
</svg>
